<svg width="36" height="36" viewBox="0 0 36 36" fill="none" xmlns="http://www.w3.org/2000/svg">
<circle cx="18" cy="18" r="18" fill="white"/>
<circle cx="18" cy="18" r="17.5" stroke="black" stroke-opacity="0.1"/>
<path d="M16.9653 13.0858C16.8849 13.0858 16.7945 13.126 16.7342 13.1862L16.232 13.6885C16.1717 13.7487 16.1316 13.8391 16.1316 13.9195C16.1316 13.9999 16.1717 14.0903 16.232 14.1505L20.1795 18.0981L16.232 22.0456C16.1717 22.1059 16.1316 22.1963 16.1316 22.2766C16.1316 22.367 16.1717 22.4474 16.232 22.5077L16.7342 23.0099C16.7945 23.0702 16.8849 23.1104 16.9653 23.1104C17.0456 23.1104 17.136 23.0702 17.1963 23.0099L21.8771 18.3291C21.9374 18.2688 21.9775 18.1784 21.9775 18.0981C21.9775 18.0177 21.9374 17.9273 21.8771 17.867L17.1963 13.1862C17.136 13.126 17.0456 13.0858 16.9653 13.0858Z" fill="black"/>
</svg>
