<svg width="36" height="36" viewBox="0 0 36 36" fill="none" xmlns="http://www.w3.org/2000/svg">
<circle r="17.5" transform="matrix(-1 0 0 1 18 18)" fill="white" stroke="white"/>
<path d="M19.0347 13.0858C19.1151 13.0858 19.2055 13.126 19.2658 13.1862L19.768 13.6885C19.8283 13.7487 19.8684 13.8391 19.8684 13.9195C19.8684 13.9999 19.8283 14.0903 19.768 14.1505L15.8205 18.0981L19.768 22.0456C19.8283 22.1059 19.8684 22.1963 19.8684 22.2766C19.8684 22.367 19.8283 22.4474 19.768 22.5077L19.2658 23.0099C19.2055 23.0702 19.1151 23.1104 19.0347 23.1104C18.9544 23.1104 18.864 23.0702 18.8037 23.0099L14.1229 18.3291C14.0626 18.2688 14.0225 18.1784 14.0225 18.0981C14.0225 18.0177 14.0626 17.9273 14.1229 17.867L18.8037 13.1862C18.864 13.126 18.9544 13.0858 19.0347 13.0858Z" fill="black"/>
</svg>
