<svg width="203" height="36" viewBox="0 0 203 36" fill="none" xmlns="http://www.w3.org/2000/svg">
<path d="M146.286 17.7143C146.286 14.875 143.982 12.5714 141.143 12.5714C138.304 12.5714 136 14.875 136 17.7143C136 20.5536 138.304 22.8571 141.143 22.8571C143.982 22.8571 146.286 20.5536 146.286 17.7143Z" fill="#EBEAED"/>
<path d="M126.286 17.7143C126.286 14.875 123.982 12.5714 121.143 12.5714C118.304 12.5714 116 14.875 116 17.7143C116 20.5536 118.304 22.8571 121.143 22.8571C123.982 22.8571 126.286 20.5536 126.286 17.7143Z" fill="#EBEAED"/>
<path d="M106.286 17.7143C106.286 14.875 103.982 12.5714 101.143 12.5714C98.3036 12.5714 96 14.875 96 17.7143C96 20.5536 98.3036 22.8571 101.143 22.8571C103.982 22.8571 106.286 20.5536 106.286 17.7143Z" fill="#EBEAED"/>
<path d="M86.2857 17.7143C86.2857 14.875 83.9821 12.5714 81.1429 12.5714C78.3036 12.5714 76 14.875 76 17.7143C76 20.5536 78.3036 22.8571 81.1429 22.8571C83.9821 22.8571 86.2857 20.5536 86.2857 17.7143Z" fill="#EBEAED"/>
<path d="M66.2857 17.7143C66.2857 14.875 63.9821 12.5714 61.1429 12.5714C58.3036 12.5714 56 14.875 56 17.7143C56 20.5536 58.3036 22.8571 61.1429 22.8571C63.9821 22.8571 66.2857 20.5536 66.2857 17.7143Z" fill="#12182A"/>
<circle r="17.5" transform="matrix(-1 0 0 1 18 18)" fill="#12182A" stroke="#12182A"/>
<path d="M21.2625 23.7375L15.5375 18L21.2625 12.2625L19.5 10.5L12 18L19.5 25.5L21.2625 23.7375Z" fill="white"/>
<circle cx="185" cy="18" r="18" fill="#12182A"/>
<path d="M181.738 23.7375L187.463 18L181.738 12.2625L183.5 10.5L191 18L183.5 25.5L181.738 23.7375Z" fill="white"/>
</svg>
